<?xml version="1.0" encoding="utf-8"?>
<!-- Generator: Adobe Illustrator 16.0.0, SVG Export Plug-In . SVG Version: 6.00 Build 0)  -->
<!DOCTYPE svg PUBLIC "-//W3C//DTD SVG 1.1//EN" "http://www.w3.org/Graphics/SVG/1.1/DTD/svg11.dtd">
<svg version="1.1" id="Layer_1" xmlns="http://www.w3.org/2000/svg" xmlns:xlink="http://www.w3.org/1999/xlink" x="0px" y="0px"
	 width="58px" height="55.426px" viewBox="0 0 58 55.426" enable-background="new 0 0 58 55.426" xml:space="preserve">
<path fill="#FFFFFF" d="M102.803,58.897L102.803,58.897L102.803,58.897 M102.858,51.979c0.021-0.008,0.047-0.017,0.068-0.024
	C102.905,51.962,102.881,51.972,102.858,51.979z"/>
<g>
	<path fill="#FFFFFF" d="M1.666,0.03c0.739,0.136,38.026,6.987,38.696,7.121c0.673,0.135,0.659,0.345,0.214,0.822
		c-0.825,0.889-3.169,3.882-3.908,4.957c-0.739,1.074-0.504,1.275-2.687,1.613c-2.183,0.335-2.652,0.421-3.156,0.521
		c-0.503,0.101-0.37-0.22-0.269-0.623c0,0,1.19-2.933,1.288-3.175c0.098-0.243,0.191-0.384-0.382-0.384
		c-0.57,0-5.378-0.078-5.95-0.078c-0.572,0-0.632,0.312-0.767,0.852c-0.134,0.535-0.571,2.485-0.671,2.888
		c-0.101,0.403-0.134,0.772-1.31,0.839c-1.176,0.067-3.762,0.438-4.333,0.37c-0.571-0.067-0.494-0.298-0.504-1.007
		c-0.007-0.713,0.148-2.713,0.203-3.351c0.055-0.639-0.104-0.653-0.636-0.66c-0.531-0.009-14.781-0.192-15.821-0.192
		c-1.043,0-1.511,0.168-1.613-1.512c-0.1-1.679,0.169-7.186,0.369-8.094C0.629,0.032,1.127-0.067,1.666,0.03"/>
	<path fill="#FFFFFF" d="M8.372,37.832c0.622-0.428,7.843-5.154,11.503-7.572c3.662-2.419,11.673-7.643,12.176-7.978
		c0.503-0.336,0.67-0.383,0.586,0.174c-0.098,0.652-0.37,1.606-0.384,1.823c0,0-0.286,0.521-0.792,1.092
		c-0.203,0.23-1.508,1.464-2.837,3.039c-1.97,2.336-4.168,5.266-4.349,5.525c-0.303,0.435-0.202,0.435,0.084,0.133
		c0.286-0.301,3.023-3.274,4.618-4.987c1.595-1.712,2.621-2.956,2.854-3.174c0.236-0.218,0.303-0.152,0.303,0.386
		c0,0.537-0.017,1.175-0.05,1.46s-0.151,0.521-0.756,1.395c-0.604,0.873-3.106,4.852-5.759,8.933
		c-2.653,4.083-6.516,10.144-6.903,10.699c-0.386,0.553-0.621,0.687-1.293,0.15c-0.672-0.538-2.955-2.654-3.292-2.957
		c-0.335-0.301,0.016-0.865,0.437-1.579c0.381-0.645,5.087-7.556,6.818-9.538c0,0,0.151-0.421-1.226,0.872
		c-1.376,1.293-7.07,6.584-7.724,7.204c-0.655,0.621-0.705,0.656-1.311-0.202c-0.604-0.857-2.3-3.175-2.704-3.812
		C7.97,38.285,7.889,38.167,8.372,37.832"/>
	<path fill="#FFFFFF" d="M23.008,51.696c0.232-0.503,7.565-17.54,7.7-17.943c0.135-0.404,0.05-0.368-0.085-0.706
		c-0.133-0.334-0.336-0.656-0.453-0.923c-0.117-0.267,0.034-0.318,0.303-0.857c0.27-0.537,1.275-2.285,1.461-2.568
		c0.184-0.285,0.202-0.235,0.32,0.571c0.117,0.806,0.725,2.635,1.128,3.447c0.114,0.23,0.098,0.601,0.098,0.885
		c0,0.286-0.136,2.133-0.169,2.404c-0.033,0.267-0.017,0.218-0.403-0.169c-0.108-0.109-0.108-0.109-0.465-0.509
		c0,0-0.122-0.196-0.307,0.425c-0.185,0.622-1.125,5.207-2.014,9.319c-0.891,4.116-1.831,8.213-1.931,8.648
		c-0.101,0.437-0.051,0.656-1.076,0.354c-1.024-0.303-3.409-1.333-3.829-1.617C22.865,52.168,22.808,52.13,23.008,51.696"/>
	<path fill="#FFFFFF" d="M33.868,32.331c-0.003-0.198,0.031-0.398,0.036-0.459c0.015-0.224,0.056-0.156,0.191,0.224
		c0.134,0.38,0.426,0.85,0.525,0.963c0.101,0.112,0.131,0.183,0.133,0.34c0.002,0.245,0.021,0.496-0.05,0.437
		c-0.111-0.091-0.686-0.969-0.786-1.205C33.882,32.549,33.87,32.439,33.868,32.331"/>
	<path fill="#FFFFFF" d="M41.707,54.211c-0.184-0.346-1.982-3.649-3.729-8.856c-1.747-5.206-2.541-8.648-2.765-9.521
		c-0.224-0.874-0.415-1.009-0.415-1.009c-0.179-0.202-0.514-0.675-0.749-0.963c-0.231-0.281-0.267-0.243-0.289,0.114
		c-0.023,0.358-0.26,3.76-0.819,8.193c-0.559,4.434-2.386,11.522-2.538,12.04c-0.151,0.515-0.025,0.632,0.361,0.766
		c0.387,0.133,2.495,0.505,3.316,0.505c0.824,0,0.741-0.152,0.771-0.672c0.036-0.521,0.136-2.889,0.136-3.275
		c0-0.388,0.05-0.437,0.386-0.437c0.335,0,0.806,0.018,0.974,0.033c0.167,0.017,0.317,0.034,0.368,0.285
		c0.05,0.251,0.56,3.09,0.656,3.326c0.151,0.375,0.167,0.542,0.553,0.542c0.387,0,3.108-0.339,3.528-0.475
		C41.874,54.672,41.891,54.56,41.707,54.211z M35.912,47.977c-0.252-0.034-0.503-0.051-0.654-0.1
		c-0.152-0.05-0.227-0.085-0.236-0.455c-0.007-0.335-0.132-7.439-0.132-7.841c0-0.255,0.116-0.404,0.132,0.284
		s0.656,6.03,1.006,7.759C36.077,47.853,36.164,48.01,35.912,47.977z"/>
	<path fill="#FFFFFF" d="M36.568,36.121c0.281,0.143,1.123,0.586,1.442,0.756c0.32,0.167,1.009,0.873,1.629,1.444
		c0.623,0.571,2.335,2.501,2.588,2.738c0.253,0.233,0.403,0.353,0,0.486c-0.403,0.135-1.076,0.321-1.242,0.353
		c-0.169,0.033-0.355,0.084-0.64-0.37c-0.284-0.453-1.006-1.749-1.292-2.161c-0.387-0.559-0.942-0.812-0.453,0.096
		c0,0,1.074,1.898,1.377,2.268c0.302,0.369,0.251,0.688,1.275,1.006c1.025,0.319,1.779,0.538,2.318,0.739
		c0.536,0.202,0.939,0.353,1.798,1.074c0.854,0.723,3.037,3.276,3.811,4.183c0.773,0.908,1.521,2.266-1.476,3.844
		c-3.796,1.999-4.619,0.823-5.508-0.302c0,0-1.561-2.462-2.452-4.511c-0.187-0.434,0-0.56,0.234-0.628
		c0.233-0.067,2.049-0.537,2.349-0.622c0.303-0.084,0.484,0.385,0.739,0.941c0.148,0.324,1.45,2.582,1.636,2.851
		c0.114,0.168,0.5,0.379,0.784,0.256c0.167-0.074,0.336-0.318,0.117-0.79c0,0-1.746-2.888-2.032-3.342
		c-0.286-0.452-0.539-0.419-1.393-0.737c-0.282-0.105-1.081-0.436-1.606-0.701c-1.085-0.547-2.127-1.418-2.896-3.682
		c-0.708-2.082-1.091-3.309-1.26-3.964C36.25,36.691,36.074,35.868,36.568,36.121"/>
	<path fill="#FFFFFF" d="M43.062,38.197l11.857,6.247c0,0,0.4,0.135,0.303,0.393c-0.104,0.256-1.445,2.283-1.961,2.688
		c-0.514,0.4-0.414,0.223-2.539-1.435c-2.127-1.656-8.845-7.156-8.997-7.274c-0.15-0.118-0.234-0.286-0.511-0.193
		c-0.241,0.065-0.592,0.268-0.995-0.179c-0.403-0.446-1.356-1.422-1.356-1.422s-0.044-0.178,0.235-0.178
		c0.279,0,1.12,0.01,1.625-0.146c0.398-0.124,0.596,0.007,0.642,0.019c0.043,0.012,1.607,0.604,1.956,0.687
		c0.236,0.056-0.248,0.336-0.303,0.369C42.959,37.806,42.568,37.951,43.062,38.197z"/>
	<path fill="#FFFFFF" d="M42.554,36.053c2.704,0.461,14.468,1.911,14.468,1.911s0.555-0.012,0.445,0.582
		c-0.115,0.595-0.371,1.806-0.484,2.092c-0.113,0.283-0.135,0.643-0.916,0.444c-0.781-0.198-14.369-4.443-14.369-4.443
		s-0.417-0.131-0.174-0.285c0.124-0.076,0.274-0.185,0.391-0.244C42.017,36.062,42.22,35.995,42.554,36.053z"/>
	<path fill="#FFFFFF" d="M47.528,34.144l-2.061,0.348c0,0-0.167-0.022-0.167,0.167c0,0.192,0.158,0.156,0.158,0.156L55.2,33.63
		c0,0,0.57-0.024,0.5-0.483c-0.064-0.458-0.357-0.446-0.637-0.39c-0.277,0.055-3.123,0.615-3.123,0.615s-0.279,0.067-0.346-0.538
		c-0.07-0.605-0.191-1.444-0.191-1.444s-0.078-0.18,0.213-0.258c0.291-0.079,3.248-1.21,3.885-1.31
		c0.639-0.102,1.613-0.347,2.018,1.23c0.4,1.579,0.57,2.969,0.346,4.222c-0.225,1.254-1.434,1.221-2.285,1.23
		c-0.85,0.012-10.073-0.549-10.457-0.561c-0.381-0.01-1.657-0.119-1.836-0.146c-0.133-0.019-0.918-0.056-0.403-0.659
		c0.518-0.606,0.763-1.053,1.703-1.412c0.942-0.357,2.957-1.143,2.957-1.143s0.513-0.29,0.513,0.157s-0.021,0.917-0.021,0.917
		S48.01,34.088,47.528,34.144z"/>
	<path fill="#FFFFFF" d="M34.575,15.593c-0.626,0.068-6.449,0.806-15.808,1.456c-9.36,0.65-15.603,0.029-16.524,0
		c-1.031-0.034-1.434-0.056-1.356,0.973c0.078,1.03,1.197,5.453,1.434,6.438c0.234,0.984,0.626,0.728,1.164,0.649
		c0.537-0.078,4.212-0.784,4.839-0.91c0.358-0.073,0.619-0.15,0.736,0.37c0.169,0.757,0.517,1.621,0.637,2.085
		c0.134,0.515-0.288,0.661-0.47,0.785c-0.524,0.359-3.986,1.948-4.488,2.276c-0.41,0.269-0.663,0.546-0.483,1.126
		c0.178,0.581,2.216,4.747,2.529,5.285c0.314,0.537,0.381,0.56,0.739,0.247c0.357-0.313,5.418-4.725,11.553-8.598
		c6.135-3.874,12.875-7.548,13.436-7.927c0.558-0.382,0.785-0.515,0.963-1.03c0.179-0.515,1.03-2.127,1.321-2.666
		C35.09,15.617,35.203,15.527,34.575,15.593z M26.474,20.167c-0.203,0.062-2.881,1.084-5.492,2.167
		c-2.99,1.241-5.952,2.566-6.096,2.62c-0.269,0.101-0.521,0.219-0.672-0.32c-0.149-0.537-0.234-0.973-0.286-1.241
		c-0.05-0.271,0.125-0.343,0.958-0.539c1.219-0.284,11.067-2.803,11.586-2.939C26.996,19.781,26.912,20.033,26.474,20.167z"/>
	<path fill="#FFFFFF" d="M53.43,23.096c-1.154-0.954-2.053,0.324-2.053,0.324l-6.885,7.613c-0.728,0.794-0.773,1.459-0.761,2.07
		c0.014,0.752,0.928,0.264,1.23,0.146c0.079-0.028,5.353-2.417,7.681-3.504c2.33-1.085,3.303-1.343,3.336-2.608
		S54.583,24.045,53.43,23.096z M53.022,26.559c0,0-7.182,5.013-7.273,5.067c-0.09,0.056-0.203,0.067-0.246-0.024
		c-0.076-0.148,0.077-0.255,0.077-0.255l6.92-5.442c0,0,0.424-0.24,0.629,0.06C53.334,26.263,53.022,26.559,53.022,26.559z"/>
</g>
</svg>
